<svg width="20" height="20" viewBox="0 0 20 20" fill="none" xmlns="http://www.w3.org/2000/svg">
<path fill-rule="evenodd" clip-rule="evenodd" d="M9.99992 5.83333C10.9199 5.83333 11.6666 5.08667 11.6666 4.16667C11.6666 3.24667 10.9199 2.5 9.99992 2.5C9.07992 2.5 8.33325 3.24667 8.33325 4.16667C8.33325 5.08667 9.07992 5.83333 9.99992 5.83333ZM9.99992 8.33333C9.07992 8.33333 8.33325 9.08 8.33325 10C8.33325 10.92 9.07992 11.6667 9.99992 11.6667C10.9199 11.6667 11.6666 10.92 11.6666 10C11.6666 9.08 10.9199 8.33333 9.99992 8.33333ZM8.33325 15.8333C8.33325 14.9133 9.07992 14.1667 9.99992 14.1667C10.9199 14.1667 11.6666 14.9133 11.6666 15.8333C11.6666 16.7533 10.9199 17.5 9.99992 17.5C9.07992 17.5 8.33325 16.7533 8.33325 15.8333Z" fill="white"/>
<mask id="mask0_2747_19168" style="mask-type:alpha" maskUnits="userSpaceOnUse" x="8" y="2" width="4" height="16">
<path fill-rule="evenodd" clip-rule="evenodd" d="M9.99992 5.83333C10.9199 5.83333 11.6666 5.08667 11.6666 4.16667C11.6666 3.24667 10.9199 2.5 9.99992 2.5C9.07992 2.5 8.33325 3.24667 8.33325 4.16667C8.33325 5.08667 9.07992 5.83333 9.99992 5.83333ZM9.99992 8.33333C9.07992 8.33333 8.33325 9.08 8.33325 10C8.33325 10.92 9.07992 11.6667 9.99992 11.6667C10.9199 11.6667 11.6666 10.92 11.6666 10C11.6666 9.08 10.9199 8.33333 9.99992 8.33333ZM8.33325 15.8333C8.33325 14.9133 9.07992 14.1667 9.99992 14.1667C10.9199 14.1667 11.6666 14.9133 11.6666 15.8333C11.6666 16.7533 10.9199 17.5 9.99992 17.5C9.07992 17.5 8.33325 16.7533 8.33325 15.8333Z" fill="white"/>
</mask>
<g mask="url(#mask0_2747_19168)">
</g>
</svg>
